<svg width="22" height="16" viewBox="0 0 22 16" fill="none" xmlns="http://www.w3.org/2000/svg">
<path d="M21.2706 7.74978C21.2706 8.16378 20.9158 8.49978 20.4786 8.49978H3.38299L9.42335 14.2197C9.73275 14.5127 9.73275 14.9878 9.42335 15.2808C9.26917 15.4268 9.06639 15.5008 8.86364 15.5008C8.66088 15.5008 8.45816 15.4278 8.30399 15.2808L0.911988 8.28078C0.60258 7.98778 0.60258 7.51275 0.911988 7.21975L8.30399 0.21975C8.6134 -0.07325 9.11497 -0.07325 9.42438 0.21975C9.73379 0.51275 9.73379 0.987785 9.42438 1.28079L3.38409 7.00076H20.4786C20.9158 6.99976 21.2706 7.33578 21.2706 7.74978Z" fill="#6336FF"/>
</svg>
