<svg width="35" height="13" viewBox="0 0 35 13" fill="none" xmlns="http://www.w3.org/2000/svg">
<path d="M23.7943 3.90467C19.6008 2.53956 15.0537 2.54939 10.8503 3.90468L10.8503 8.22588C10.8503 8.75621 10.5459 9.23744 10.0843 9.46332C8.62099 10.1999 7.23624 11.1918 6.01844 12.4096C5.47829 12.9497 4.59441 12.9497 4.05426 12.4096L0.626755 8.98209C0.0866033 8.44194 0.0866033 7.55806 0.626755 7.01791C9.84861 -2.20394 24.7961 -2.20394 34.0179 7.01791C34.5581 7.55806 34.5581 8.44194 34.0179 8.98209L30.5806 12.4194C30.0404 12.9596 29.1565 12.9596 28.6164 12.4194C27.3888 11.1918 26.0139 10.2097 24.5505 9.47314C24.0988 9.23744 23.7943 8.77585 23.7943 8.22588L23.7943 3.90467Z" fill="white"/>
</svg>
