<svg width="24" height="24" viewBox="0 0 24 24" fill="none" xmlns="http://www.w3.org/2000/svg">
<path d="M20.9808 9.86597C19.6658 7.67597 16.7178 4 11.7518 4C6.78675 4 3.83775 7.67497 2.52275 9.86597C1.82575 11.028 1.82575 12.471 2.52275 13.634C3.83875 15.824 6.78675 19.5 11.7518 19.5C16.7178 19.5 19.6658 15.825 20.9808 13.634C21.6788 12.472 21.6788 11.029 20.9808 9.86597ZM19.6947 12.863C18.5427 14.782 15.9788 18.001 11.7518 18.001C7.52475 18.001 4.96076 14.782 3.80876 12.863C3.39776 12.177 3.39776 11.324 3.80876 10.639C4.96076 8.71998 7.52575 5.50098 11.7518 5.50098C15.9798 5.50098 18.5437 8.71998 19.6947 10.639C20.1067 11.324 20.1067 12.177 19.6947 12.863ZM11.7518 7.50098C9.40875 7.50098 7.50175 9.40798 7.50175 11.751C7.50175 14.094 9.40875 16.001 11.7518 16.001C14.0948 16.001 16.0018 14.094 16.0018 11.751C16.0018 9.40798 14.0948 7.50098 11.7518 7.50098ZM11.7518 14.501C10.2348 14.501 9.00175 13.268 9.00175 11.751C9.00175 10.234 10.2348 9.00098 11.7518 9.00098C13.2688 9.00098 14.5018 10.234 14.5018 11.751C14.5018 13.268 13.2688 14.501 11.7518 14.501Z" fill="#41416E"/>
</svg>
