<svg width="13" height="16" viewBox="0 0 13 16" fill="none" xmlns="http://www.w3.org/2000/svg">
<path d="M10.4 6.12716V3.78947C10.4 1.70021 8.6502 0 6.5 0C4.3498 0 2.6 1.70021 2.6 3.78947V6.12716C1.09027 6.65011 0 8.03958 0 9.68421V12.2105C0 14.2998 1.7498 16 3.9 16H9.1C11.2502 16 13 14.2998 13 12.2105V9.68421C13 8.03958 11.9097 6.65011 10.4 6.12716ZM3.46667 3.78947C3.46667 2.16421 4.82733 0.842105 6.5 0.842105C8.17267 0.842105 9.53333 2.16421 9.53333 3.78947V5.93768C9.38947 5.92168 9.2482 5.89474 9.1 5.89474H3.9C3.7518 5.89474 3.61053 5.92168 3.46667 5.93768V3.78947ZM12.1333 12.2105C12.1333 13.8358 10.7727 15.1579 9.1 15.1579H3.9C2.22733 15.1579 0.866667 13.8358 0.866667 12.2105V9.68421C0.866667 8.05895 2.22733 6.73684 3.9 6.73684H9.1C10.7727 6.73684 12.1333 8.05895 12.1333 9.68421V12.2105ZM6.93333 10.5263V12.2105C6.93333 12.4429 6.7392 12.6316 6.5 12.6316C6.2608 12.6316 6.06667 12.4429 6.06667 12.2105V10.5263C6.06667 10.2939 6.2608 10.1053 6.5 10.1053C6.7392 10.1053 6.93333 10.2931 6.93333 10.5263Z" fill="#41416E"/>
</svg>
