<svg width="14" height="16" viewBox="0 0 14 16" fill="none" xmlns="http://www.w3.org/2000/svg">
<path d="M7.77767 15.2C7.77767 15.6424 7.42923 16 6.9999 16H3.88883C1.74453 16 0 14.2056 0 12V4C0 1.7944 1.74453 0 3.88883 0H6.9999C7.42923 0 7.77767 0.3576 7.77767 0.8C7.77767 1.2424 7.42923 1.6 6.9999 1.6H3.88883C2.60241 1.6 1.55553 2.6768 1.55553 4V12C1.55553 13.3232 2.60241 14.4 3.88883 14.4H6.9999C7.43001 14.4 7.77767 14.7576 7.77767 15.2ZM13.7719 7.43438L10.6609 4.23438C10.3567 3.92158 9.86519 3.92158 9.56109 4.23438C9.25698 4.54717 9.25698 5.05283 9.56109 5.36562L11.3445 7.2H5.44437C5.01504 7.2 4.6666 7.5576 4.6666 8C4.6666 8.4424 5.01504 8.8 5.44437 8.8H11.3445L9.56109 10.6344C9.25698 10.9472 9.25698 11.4528 9.56109 11.7656C9.71275 11.9216 9.91186 12 10.111 12C10.3101 12 10.5092 11.9216 10.6609 11.7656L13.7719 8.56563C14.076 8.25283 14.076 7.74638 13.7719 7.43438Z" fill="white"/>
</svg>
