<svg width="16" height="20" viewBox="0 0 16 20" fill="none" xmlns="http://www.w3.org/2000/svg">
<path d="M7.75 13.5C10.369 13.5 12.5 11.369 12.5 8.75V4.75C12.5 2.131 10.369 0 7.75 0C5.131 0 3 2.131 3 4.75V8.75C3 11.369 5.131 13.5 7.75 13.5ZM4.5 4.75C4.5 2.958 5.958 1.5 7.75 1.5C9.542 1.5 11 2.958 11 4.75V8.75C11 10.542 9.542 12 7.75 12C5.958 12 4.5 10.542 4.5 8.75V4.75ZM8.5 16.462V18H11.75C12.164 18 12.5 18.336 12.5 18.75C12.5 19.164 12.164 19.5 11.75 19.5H3.75C3.336 19.5 3 19.164 3 18.75C3 18.336 3.336 18 3.75 18H7V16.462C3.077 16.083 0 12.77 0 8.75C0 8.336 0.336 8 0.75 8C1.164 8 1.5 8.336 1.5 8.75C1.5 12.196 4.304 15 7.75 15C11.196 15 14 12.196 14 8.75C14 8.336 14.336 8 14.75 8C15.164 8 15.5 8.336 15.5 8.75C15.5 12.77 12.423 16.083 8.5 16.462Z" fill="#7B6CFF"/>
</svg>
