<svg width="18" height="20" viewBox="0 0 18 20" fill="none" xmlns="http://www.w3.org/2000/svg">
<path d="M8.75076 13.5C11.3698 13.5 13.5008 11.369 13.5008 8.75V6.06104L17.2808 2.28101C17.5738 1.98801 17.5738 1.51297 17.2808 1.21997C16.9878 0.926971 16.5127 0.926971 16.2197 1.21997L0.21975 17.22C-0.07325 17.513 -0.07325 17.988 0.21975 18.281C0.36575 18.427 0.557779 18.501 0.749779 18.501C0.941779 18.501 1.13375 18.428 1.27975 18.281L4.40078 15.16C5.46678 15.888 6.70778 16.3351 7.99978 16.4611V18.001H4.75076C4.33676 18.001 4.00076 18.337 4.00076 18.751C4.00076 19.165 4.33676 19.501 4.75076 19.501H12.7508C13.1648 19.501 13.5008 19.165 13.5008 18.751C13.5008 18.337 13.1648 18.001 12.7508 18.001H9.50076V16.463C13.4238 16.084 16.5008 12.771 16.5008 8.75098C16.5008 8.33698 16.1648 8.00098 15.7508 8.00098C15.3368 8.00098 15.0008 8.33698 15.0008 8.75098C15.0008 12.197 12.1968 15.001 8.75076 15.001C7.59176 15.001 6.46773 14.665 5.49673 14.066L6.59274 12.97C7.26274 13.314 7.99676 13.5 8.75076 13.5ZM12.0008 8.75C12.0008 10.542 10.5428 12 8.75076 12C8.40276 12 8.06075 11.939 7.73275 11.829L12.0008 7.56104V8.75ZM4.11678 9.802C4.03878 9.427 4.00076 9.082 4.00076 8.75V4.75C4.00076 3.492 4.49274 2.30004 5.38674 1.39404C6.30074 0.493043 7.49276 0 8.75076 0C10.3048 0 11.7618 0.763969 12.6468 2.04297C12.8828 2.38397 12.7977 2.85106 12.4567 3.08606C12.1158 3.32206 11.6478 3.237 11.4138 2.896C10.8088 2.021 9.81276 1.49902 8.75076 1.49902C7.88976 1.49902 7.07074 1.838 6.44674 2.453C5.83974 3.069 5.50076 3.88802 5.50076 4.74902V8.74902C5.50076 8.97802 5.52874 9.22195 5.58474 9.49695C5.66874 9.90195 5.40773 10.2991 5.00173 10.3831C4.95073 10.3941 4.89978 10.399 4.84878 10.399C4.50178 10.4 4.18978 10.156 4.11678 9.802ZM1.86575 12.316C1.29975 11.23 1.00076 9.996 1.00076 8.75C1.00076 8.336 1.33676 8 1.75076 8C2.16476 8 2.50076 8.336 2.50076 8.75C2.50076 9.757 2.74076 10.75 3.19576 11.624C3.38676 11.991 3.24473 12.444 2.87673 12.635C2.76673 12.693 2.64779 12.72 2.53079 12.72C2.26079 12.72 1.99875 12.573 1.86575 12.316Z" fill="#7B6CFF"/>
</svg>
