<svg width="14" height="14" viewBox="0 0 14 14" fill="none" xmlns="http://www.w3.org/2000/svg">
<path d="M12.831 5.446H12.81C12.6431 5.44501 12.4803 5.39462 12.342 5.30119C12.2037 5.20775 12.0962 5.07546 12.033 4.921C12.033 4.91914 12.0323 4.91736 12.0309 4.91605C12.0296 4.91474 12.0279 4.914 12.026 4.914C11.9637 4.76003 11.9478 4.59123 11.9801 4.42833C12.0124 4.26543 12.0916 4.11551 12.208 3.997L12.229 3.976C12.4475 3.75664 12.5702 3.45963 12.5702 3.15C12.5702 2.84037 12.4475 2.54336 12.229 2.324L11.676 1.778C11.4566 1.55948 11.1596 1.43679 10.85 1.43679C10.5404 1.43679 10.2434 1.55948 10.024 1.778L10.017 1.792C9.89578 1.90877 9.74307 1.98755 9.57765 2.01864C9.41224 2.04973 9.24134 2.03178 9.086 1.967C8.9294 1.90611 8.79484 1.79936 8.69991 1.66072C8.60499 1.52208 8.55414 1.35802 8.554 1.19V1.169C8.55455 1.01592 8.52492 0.864229 8.46681 0.722607C8.4087 0.580984 8.32324 0.452206 8.21532 0.343636C8.1074 0.235065 7.97913 0.148833 7.83786 0.0898692C7.69659 0.0309054 7.54508 0.00036699 7.392 0H6.608C6.45492 0.00036699 6.30341 0.0309054 6.16214 0.0898692C6.02087 0.148833 5.8926 0.235065 5.78468 0.343636C5.67676 0.452206 5.5913 0.580984 5.53319 0.722607C5.47508 0.864229 5.44545 1.01592 5.446 1.169V1.19C5.44566 1.35703 5.39553 1.52018 5.30202 1.65858C5.2085 1.79698 5.07585 1.90436 4.921 1.967C4.81534 2.01424 4.70073 2.03811 4.585 2.037C4.47459 2.03727 4.36521 2.01577 4.26311 1.97373C4.16101 1.93169 4.06821 1.86994 3.99 1.792L3.976 1.778C3.75664 1.55948 3.45963 1.43679 3.15 1.43679C2.84037 1.43679 2.54336 1.55948 2.324 1.778L1.771 2.324C1.55248 2.54336 1.42979 2.84037 1.42979 3.15C1.42979 3.45963 1.55248 3.75664 1.771 3.976L1.792 3.997C1.90932 4.11638 1.98888 4.26768 2.02073 4.432C2.05258 4.59632 2.03532 4.76639 1.9711 4.92096C1.90688 5.07553 1.79855 5.20776 1.65964 5.30114C1.52072 5.39451 1.35738 5.4449 1.19 5.446H1.169C0.859132 5.44655 0.562115 5.56989 0.343005 5.789C0.123896 6.00811 0.000555154 6.30513 0 6.615V7.392C0.000555154 7.70187 0.123896 7.99888 0.343005 8.21799C0.562115 8.4371 0.859132 8.56044 1.169 8.561H1.19C1.35742 8.55962 1.52133 8.60906 1.66006 8.7028C1.79879 8.79653 1.90581 8.93015 1.967 9.086C2.03045 9.24158 2.04769 9.41215 2.01665 9.57728C1.98561 9.7424 1.90761 9.89508 1.792 10.017L1.778 10.024C1.55939 10.2447 1.43676 10.5428 1.43676 10.8535C1.43676 11.1642 1.55939 11.4623 1.778 11.683L2.324 12.229C2.54336 12.4475 2.84037 12.5702 3.15 12.5702C3.45963 12.5702 3.75664 12.4475 3.976 12.229L3.99 12.215C4.10689 12.0961 4.25689 12.0151 4.42045 11.9826C4.58401 11.9502 4.75355 11.9677 4.907 12.033C5.0648 12.095 5.20045 12.2028 5.2965 12.3425C5.39255 12.4822 5.44462 12.6475 5.446 12.817V12.838C5.44563 12.9907 5.47543 13.142 5.5337 13.2831C5.59197 13.4243 5.67754 13.5525 5.78552 13.6605C5.89349 13.7685 6.02174 13.854 6.16289 13.9123C6.30403 13.9706 6.4553 14.0004 6.608 14H7.392C7.5447 14.0004 7.69597 13.9706 7.83711 13.9123C7.97826 13.854 8.10651 13.7685 8.21448 13.6605C8.32246 13.5525 8.40803 13.4243 8.4663 13.2831C8.52456 13.142 8.55437 12.9907 8.554 12.838V12.817C8.55538 12.6475 8.60745 12.4822 8.7035 12.3425C8.79955 12.2028 8.9352 12.095 9.093 12.033C9.24645 11.9677 9.41599 11.9502 9.57955 11.9826C9.74311 12.0151 9.89311 12.0961 10.01 12.215L10.024 12.229C10.2434 12.4475 10.5404 12.5702 10.85 12.5702C11.1596 12.5702 11.4566 12.4475 11.676 12.229L12.222 11.683C12.4406 11.4623 12.5632 11.1642 12.5632 10.8535C12.5632 10.5428 12.4406 10.2447 12.222 10.024L12.208 10.017C12.0924 9.89508 12.0144 9.7424 11.9834 9.57728C11.9523 9.41215 11.9696 9.24158 12.033 9.086C12.0942 8.93015 12.2012 8.79653 12.3399 8.7028C12.4787 8.60906 12.6426 8.55962 12.81 8.561H12.831C13.1409 8.56044 13.4379 8.4371 13.657 8.21799C13.8761 7.99888 13.9994 7.70187 14 7.392V6.615C13.9994 6.30513 13.8761 6.00811 13.657 5.789C13.4379 5.56989 13.1409 5.44655 12.831 5.446ZM7 9.45C6.51544 9.45 6.04175 9.30631 5.63885 9.0371C5.23595 8.76789 4.92193 8.38525 4.7365 7.93757C4.55106 7.48989 4.50254 6.99728 4.59708 6.52203C4.69161 6.04677 4.92495 5.61023 5.26759 5.26759C5.61023 4.92495 6.04677 4.69161 6.52203 4.59707C6.99728 4.50254 7.48989 4.55106 7.93757 4.73649C8.38525 4.92193 8.76789 5.23595 9.0371 5.63885C9.30631 6.04175 9.45 6.51543 9.45 7C9.45 7.64978 9.19188 8.27295 8.73241 8.73241C8.27295 9.19187 7.64978 9.45 7 9.45Z" fill="white"/>
</svg>
