<svg width="20" height="20" viewBox="0 0 20 20" fill="none" xmlns="http://www.w3.org/2000/svg">
<path d="M0.5 7.42925C0.5 7.23595 0.6567 7.07925 0.85 7.07925H4.0859C4.45 7.07925 4.79867 6.93218 5.05277 6.67141L8.89933 2.72397C9.11847 2.49908 9.5 2.65423 9.5 2.96823V17.0318C9.5 17.3458 9.11847 17.5009 8.89933 17.276L5.05277 13.3286C4.79867 13.0678 4.45 12.9208 4.0859 12.9208H0.85C0.6567 12.9208 0.5 12.7641 0.5 12.5708V7.42925ZM12.7222 6.31615C13.8007 7.1615 14.5 8.49096 14.5 10C14.5 11.51 13.8 12.8391 12.7222 13.6774V6.31615ZM12.7222 1.47951C12.7222 1.01566 13.128 0.780258 13.4468 0.907772C16.9862 2.32335 19.5 5.85564 19.5 10C19.5 14.1444 16.9862 17.6767 13.4468 19.0922C13.128 19.2197 12.7222 18.9843 12.7222 18.5205C12.7222 18.2344 12.9153 17.9487 13.2373 17.8083C16.2034 16.5154 18.2778 13.5012 18.2778 10C18.2778 6.49876 16.2034 3.48457 13.2373 2.19167C12.9153 2.05132 12.7222 1.76562 12.7222 1.47951Z" stroke="#7B6CFF"/>
</svg>
