<svg width="9" height="12" viewBox="0 0 9 12" fill="none" xmlns="http://www.w3.org/2000/svg">
<path d="M6.3 4.61538H2.7V3.07692C2.7 2.06154 3.51 1.23077 4.5 1.23077C5.34 1.23077 6.12002 1.82769 6.31802 2.61538C6.40202 2.94154 6.726 3.1446 7.05 3.05844C7.368 2.97229 7.56598 2.64 7.48198 2.30769C7.14598 0.972308 5.892 0 4.5 0C2.844 0 1.5 1.37846 1.5 3.07692V4.91692C0.612 5.3723 0 6.30154 0 7.38462V9.23077C0 10.7569 1.212 12 2.7 12H6.3C7.788 12 9 10.7569 9 9.23077V7.38462C9 5.85846 7.788 4.61538 6.3 4.61538ZM5.1 8.61539C5.1 8.95385 4.83 9.23077 4.5 9.23077C4.17 9.23077 3.9 8.95385 3.9 8.61539V8C3.9 7.66154 4.17 7.38462 4.5 7.38462C4.83 7.38462 5.1 7.66154 5.1 8V8.61539Z" fill="white"/>
</svg>
