<svg width="11" height="14" viewBox="0 0 11 14" fill="none" xmlns="http://www.w3.org/2000/svg">
<path d="M5.49964 7.36823C7.52157 7.36823 9.16655 5.71554 9.16655 3.68412C9.16655 1.65269 7.52157 0 5.49964 0C3.47771 0 1.83274 1.65269 1.83274 3.68412C1.83274 5.71554 3.47771 7.36823 5.49964 7.36823ZM5.49964 0.736823C7.11748 0.736823 8.43317 2.05868 8.43317 3.68412C8.43317 5.30955 7.11748 6.63141 5.49964 6.63141C3.8818 6.63141 2.56612 5.30955 2.56612 3.68412C2.56612 2.05868 3.8818 0.736823 5.49964 0.736823ZM11 11.3965V12.1414C11 12.7846 10.7661 13.4006 10.3422 13.8766C10.2696 13.9576 10.1698 13.9996 10.0686 13.9996C9.98132 13.9996 9.89404 13.9687 9.82437 13.9061C9.67329 13.7697 9.66082 13.5376 9.79577 13.3859C10.1001 13.0454 10.2673 12.6034 10.2673 12.1421V11.3972C10.2673 10.1976 9.47385 9.15872 8.33711 8.87136C8.10536 8.81315 7.85672 8.84482 7.65431 8.96123C6.31735 9.70837 4.67973 9.70617 3.34865 8.96272C3.1433 8.84483 2.8954 8.81241 2.66365 8.87136C1.52691 9.15872 0.732665 10.1969 0.732665 11.3972V12.1421C0.732665 12.6034 0.89988 13.0454 1.20423 13.3859C1.33917 13.5376 1.32671 13.7697 1.17563 13.9061C1.02529 14.0416 0.794276 14.0291 0.657868 13.8773C0.23324 13.4013 0 12.7854 0 12.1421V11.3972C0 9.85942 1.02233 8.52653 2.4847 8.15738C2.89759 8.05275 3.34422 8.11169 3.70871 8.32094C4.81465 8.93914 6.18244 8.9406 7.29424 8.31946C7.6558 8.11168 8.10239 8.05275 8.51602 8.15738C9.97838 8.52579 11 9.85796 11 11.3965Z" fill="#41416E"/>
</svg>
