<svg width="24" height="23" viewBox="0 0 24 23" fill="none" xmlns="http://www.w3.org/2000/svg">
<path d="M18.1538 0H5.84615C2.62277 0 0 2.64935 0 5.90541V22.0676C0 22.4443 0.225246 22.7849 0.569862 22.9291C0.684323 22.9776 0.803692 23 0.923077 23C1.16308 23 1.39938 22.9055 1.57538 22.7265L4.54646 19.7253C4.83692 19.4319 5.22339 19.2703 5.63447 19.2703H18.1538C21.3772 19.2703 24 16.6209 24 13.3649V5.90541C24 2.64935 21.3772 0 18.1538 0ZM8.30769 9.63513C8.30769 10.3214 7.75631 10.8784 7.07692 10.8784C6.39754 10.8784 5.84615 10.3214 5.84615 9.63513C5.84615 8.94886 6.39754 8.39189 7.07692 8.39189C7.75631 8.39189 8.30769 8.94886 8.30769 9.63513ZM13.2308 9.63513C13.2308 10.3214 12.6794 10.8784 12 10.8784C11.3206 10.8784 10.7692 10.3214 10.7692 9.63513C10.7692 8.94886 11.3206 8.39189 12 8.39189C12.6794 8.39189 13.2308 8.94886 13.2308 9.63513ZM18.1538 9.63513C18.1538 10.3214 17.6025 10.8784 16.9231 10.8784C16.2437 10.8784 15.6923 10.3214 15.6923 9.63513C15.6923 8.94886 16.2437 8.39189 16.9231 8.39189C17.6025 8.39189 18.1538 8.94886 18.1538 9.63513Z" fill="#787FFF"/>
</svg>
