<svg width="17" height="19" viewBox="0 0 17 19" fill="none" xmlns="http://www.w3.org/2000/svg">
<path d="M4.43645 19C3.24181 19 2.12293 18.462 1.31541 17.6041C-0.250652 15.9405 -0.686748 13.0372 1.50851 10.7057L10.515 1.13766C11.4278 0.168254 12.5892 -0.206907 13.7007 0.11009C14.7937 0.420301 15.6881 1.37129 15.981 2.53167C16.2785 3.71435 15.9265 4.94841 15.0145 5.91782L6.40073 15.069C5.9092 15.5916 5.35299 15.9008 4.79493 15.9628C4.2415 16.0249 3.71394 15.8368 3.34436 15.4442C2.67544 14.7307 2.57935 13.392 3.69361 12.2093L9.74351 5.7821C9.99205 5.51842 10.3949 5.51842 10.6434 5.7821C10.892 6.04578 10.892 6.47426 10.6434 6.73794L4.59259 13.1661C4.06965 13.7206 4.02161 14.2509 4.24427 14.4884C4.34221 14.5911 4.49004 14.6386 4.66096 14.6183C4.92244 14.5902 5.22087 14.4089 5.50082 14.1132L14.1146 4.96295C14.7059 4.33478 14.9323 3.59609 14.7521 2.88357C14.6621 2.53514 14.4878 2.21703 14.2461 1.96006C14.0044 1.70309 13.7036 1.51598 13.3727 1.41685C12.7019 1.22588 12.0053 1.46726 11.414 2.09544L2.4075 11.6635C0.729639 13.4463 1.13155 15.4985 2.2144 16.6492C3.29817 17.7999 5.22826 18.2284 6.90704 16.4437L15.9135 6.8756C15.9723 6.81293 16.0423 6.76316 16.1195 6.72919C16.1968 6.69521 16.2797 6.67772 16.3635 6.67772C16.4472 6.67772 16.5302 6.69521 16.6074 6.72919C16.6847 6.76316 16.7547 6.81293 16.8134 6.8756C16.933 7.00323 17 7.17503 17 7.354C17 7.53297 16.933 7.70477 16.8134 7.8324L7.80695 17.4005C6.74535 18.5269 5.55625 19 4.43645 19Z" fill="url(#paint0_linear_863_23)"/>
<defs>
<linearGradient id="paint0_linear_863_23" x1="13.7922" y1="5.37969" x2="-1.31606" y2="17.3372" gradientUnits="userSpaceOnUse">
<stop stop-color="#3994FF"/>
<stop offset="1" stop-color="#91C3FF"/>
</linearGradient>
</defs>
</svg>
