<svg width="29" height="29" viewBox="0 0 29 29" fill="none" xmlns="http://www.w3.org/2000/svg">
<circle cx="14.5" cy="14.5" r="14.5" fill="#B0DCF4"/>
<path d="M17.7256 11.4999C17.7256 13.1247 16.3079 14.4998 14.4993 14.4998C12.6907 14.4998 11.273 13.1247 11.273 11.4999C11.273 9.87516 12.6907 8.5 14.4993 8.5C16.3079 8.5 17.7256 9.87516 17.7256 11.4999Z" fill="#FCFCFF" stroke="#FCFCFF"/>
<path d="M20 18.8174V18.1434C20 16.6748 18.9559 15.4028 17.4633 15.0515C17.0197 14.9468 16.5392 15.0061 16.1509 15.2141C15.1274 15.7488 13.8697 15.7468 12.8547 15.2162C12.4615 15.0055 11.981 14.9455 11.5388 15.0508C10.044 15.4041 9 16.6761 9 18.1441V18.818C9 19.4407 9.24203 20.038 9.68209 20.4993C9.87727 20.7046 10.2137 20.7226 10.4337 20.538C11.7366 19.9136 15.258 19.0651 18.9211 20.6653C19.0673 20.6653 19.2129 20.6093 19.3179 20.4987C19.758 20.038 20 19.4407 20 18.8174Z" fill="#FCFCFF"/>
</svg>
