<svg width="8" height="8" viewBox="0 0 8 8" fill="none" xmlns="http://www.w3.org/2000/svg">
<path d="M6 0.4C6 0.1788 5.8208 0 5.6 0C5.3792 0 5.2 0.1788 5.2 0.4H2.8C2.8 0.1788 2.6208 0 2.4 0C2.1792 0 2 0.1788 2 0.4C0.8972 0.4 0 1.2972 0 2.4V6C0 7.1028 0.8972 8 2 8H6C7.1028 8 8 7.1028 8 6V2.4C8 1.2972 7.1028 0.4 6 0.4ZM2 1.2V1.6C2 1.8212 2.1792 2 2.4 2C2.6208 2 2.8 1.8212 2.8 1.6V1.2H5.2V1.6C5.2 1.8212 5.3792 2 5.6 2C5.8208 2 6 1.8212 6 1.6V1.2C6.6616 1.2 7.2 1.7384 7.2 2.4H0.8C0.8 1.7384 1.3384 1.2 2 1.2ZM6 7.2H2C1.3384 7.2 0.8 6.6616 0.8 6V3.2H7.2V6C7.2 6.6616 6.6616 7.2 6 7.2ZM6 4.4C6 4.6208 5.8208 4.8 5.6 4.8C5.3792 4.8 5.2 4.6208 5.2 4.4C5.2 4.1792 5.3792 4 5.6 4C5.8208 4 6 4.1792 6 4.4ZM4.4 4.4C4.4 4.6208 4.2208 4.8 4 4.8C3.7792 4.8 3.6 4.6208 3.6 4.4C3.6 4.1792 3.7792 4 4 4C4.2208 4 4.4 4.1792 4.4 4.4ZM2.8 4.4C2.8 4.6208 2.6208 4.8 2.4 4.8C2.1792 4.8 2 4.6208 2 4.4C2 4.1792 2.1792 4 2.4 4C2.6208 4 2.8 4.1792 2.8 4.4ZM6 6C6 6.2208 5.8208 6.4 5.6 6.4C5.3792 6.4 5.2 6.2208 5.2 6C5.2 5.7792 5.3792 5.6 5.6 5.6C5.8208 5.6 6 5.7792 6 6ZM4.4 6C4.4 6.2208 4.2208 6.4 4 6.4C3.7792 6.4 3.6 6.2208 3.6 6C3.6 5.7792 3.7792 5.6 4 5.6C4.2208 5.6 4.4 5.7792 4.4 6ZM2.8 6C2.8 6.2208 2.6208 6.4 2.4 6.4C2.1792 6.4 2 6.2208 2 6C2 5.7792 2.1792 5.6 2.4 5.6C2.6208 5.6 2.8 5.7792 2.8 6Z" fill="#7681FF"/>
</svg>
