<svg width="17" height="18" viewBox="0 0 17 18" fill="none" xmlns="http://www.w3.org/2000/svg">
<path d="M17 5.48302C17 3.14764 15.2105 1.23688 12.9737 1.10765V0.923077C12.9737 0.415385 12.5711 0 12.0789 0C11.5868 0 11.1842 0.415385 11.1842 0.923077V1.07993H5.81579V0.923077C5.81579 0.415385 5.41316 0 4.92105 0C4.42895 0 4.02632 0.415385 4.02632 0.923077V1.10765C1.78947 1.23688 0 3.14764 0 5.48302V7.22776C0 7.25546 0.00893754 7.283 0.0178849 7.3107C0.00893754 7.32916 0 7.35692 0 7.38462V13.8462C0 16.1354 1.80737 18 4.02632 18H12.9737C15.1926 18 17 16.1354 17 13.8462V7.38462C17 7.35692 16.9911 7.32916 16.9821 7.3107C16.9911 7.283 17 7.25546 17 7.22776V5.48302ZM4.92105 14.7692C4.42895 14.7692 4.02632 14.3538 4.02632 13.8462C4.02632 13.3385 4.42895 12.9231 4.92105 12.9231C5.41316 12.9231 5.81579 13.3385 5.81579 13.8462C5.81579 14.3538 5.41316 14.7692 4.92105 14.7692ZM4.92105 11.0769C4.42895 11.0769 4.02632 10.6615 4.02632 10.1538C4.02632 9.64615 4.42895 9.23077 4.92105 9.23077C5.41316 9.23077 5.81579 9.64615 5.81579 10.1538C5.81579 10.6615 5.41316 11.0769 4.92105 11.0769ZM8.5 14.7692C8.00789 14.7692 7.60526 14.3538 7.60526 13.8462C7.60526 13.3385 8.00789 12.9231 8.5 12.9231C8.99211 12.9231 9.39474 13.3385 9.39474 13.8462C9.39474 14.3538 8.99211 14.7692 8.5 14.7692ZM8.5 11.0769C8.00789 11.0769 7.60526 10.6615 7.60526 10.1538C7.60526 9.64615 8.00789 9.23077 8.5 9.23077C8.99211 9.23077 9.39474 9.64615 9.39474 10.1538C9.39474 10.6615 8.99211 11.0769 8.5 11.0769ZM12.0789 14.7692C11.5868 14.7692 11.1842 14.3538 11.1842 13.8462C11.1842 13.3385 11.5868 12.9231 12.0789 12.9231C12.5711 12.9231 12.9737 13.3385 12.9737 13.8462C12.9737 14.3538 12.5711 14.7692 12.0789 14.7692ZM12.0789 11.0769C11.5868 11.0769 11.1842 10.6615 11.1842 10.1538C11.1842 9.64615 11.5868 9.23077 12.0789 9.23077C12.5711 9.23077 12.9737 9.64615 12.9737 10.1538C12.9737 10.6615 12.5711 11.0769 12.0789 11.0769ZM15.2105 6.92308H1.78947V5.48302C1.78947 4.14456 2.79159 3.05533 4.06211 2.94456C4.14264 3.36918 4.49158 3.69231 4.92105 3.69231C5.35947 3.69231 5.70842 3.35993 5.78895 2.92608H11.2111C11.2916 3.35993 11.6405 3.69231 12.0789 3.69231C12.5084 3.69231 12.8574 3.36918 12.9379 2.94456C14.2084 3.05533 15.2105 4.15379 15.2105 5.48302V6.92308Z" fill="url(#paint0_linear_92_302)"/>
<defs>
<linearGradient id="paint0_linear_92_302" x1="8.5" y1="0" x2="8.5" y2="18" gradientUnits="userSpaceOnUse">
<stop stop-color="#71A1FF"/>
<stop offset="1" stop-color="#7E5DFF"/>
</linearGradient>
</defs>
</svg>
