<svg width="9" height="9" viewBox="0 0 9 9" fill="none" xmlns="http://www.w3.org/2000/svg">
<path d="M8.97073 6.6233C8.96012 6.56099 8.94721 6.50657 8.93383 6.4581C8.85305 6.16961 8.60193 5.94987 8.29405 5.8991L6.29449 5.56632C6 5.51694 5.70505 5.63093 5.52411 5.86264C5.49918 5.89449 5.47518 5.92679 5.45303 5.95956C5.42025 6.00756 5.35518 6.05235 5.28455 6.02142C4.24738 5.57046 3.42853 4.7516 2.97802 3.71443C2.94664 3.64288 2.99047 3.58011 3.03755 3.54827C3.0814 3.51872 3.12387 3.4869 3.16495 3.45366C3.38974 3.2718 3.50146 2.981 3.45623 2.69435L3.1465 0.73033C3.09895 0.42938 2.89264 0.183341 2.60738 0.0891786C2.54045 0.0670228 2.46291 0.0467349 2.3729 0.0305796C1.78854 -0.0737374 1.19078 0.0914905 0.731502 0.48568C0.250072 0.899255 -0.0167266 1.50026 0.000813562 2.13355C0.1019 5.8825 3.11695 8.89801 6.86592 8.9991C6.88484 8.99956 6.90379 9 6.92271 9C7.53062 9 8.10527 8.73688 8.50639 8.27253C8.90381 7.81233 9.0732 7.21089 8.97073 6.6233Z" fill="#CBCBCB"/>
</svg>
