<svg width="7" height="7" viewBox="0 0 7 7" fill="none" xmlns="http://www.w3.org/2000/svg">
<path d="M3.5 0C1.5701 0 0 1.5701 0 3.5C0 5.4299 1.5701 7 3.5 7C5.4299 7 7 5.4299 7 3.5C7 1.5701 5.4299 0 3.5 0ZM3.5 6.3C1.95615 6.3 0.7 5.04385 0.7 3.5C0.7 1.95615 1.95615 0.7 3.5 0.7C5.04385 0.7 6.3 1.95615 6.3 3.5C6.3 5.04385 5.04385 6.3 3.5 6.3ZM5.25 3.5C5.25 3.69355 5.0932 3.85 4.9 3.85H3.5C3.3068 3.85 3.15 3.69355 3.15 3.5V1.75C3.15 1.55645 3.3068 1.4 3.5 1.4C3.6932 1.4 3.85 1.55645 3.85 1.75V3.15H4.9C5.0932 3.15 5.25 3.30645 5.25 3.5Z" fill="#7681FF"/>
</svg>
