<svg width="30" height="30" viewBox="0 0 30 30" fill="none" xmlns="http://www.w3.org/2000/svg">
<circle cx="15" cy="15" r="15" fill="#D2D1FF"/>
<path d="M18.7256 12.4999C18.7256 14.1247 17.3079 15.4998 15.4993 15.4998C13.6907 15.4998 12.273 14.1247 12.273 12.4999C12.273 10.8752 13.6907 9.5 15.4993 9.5C17.3079 9.5 18.7256 10.8752 18.7256 12.4999Z" fill="white" stroke="white"/>
<path d="M21 19.8174V19.1434C21 17.6748 19.9559 16.4028 18.4633 16.0515C18.0197 15.9468 17.5392 16.0061 17.1509 16.2141C16.1274 16.7488 14.8697 16.7468 13.8547 16.2162C13.4615 16.0055 12.981 15.9455 12.5388 16.0508C11.044 16.4041 10 17.6761 10 19.1441V19.818C10 20.4407 10.242 21.038 10.6821 21.4993C10.8773 21.7046 11.2137 21.7226 11.4337 21.538C12.7366 20.9136 16.258 20.0651 19.9211 21.6653C20.0673 21.6653 20.2129 21.6093 20.3179 21.4987C20.758 21.038 21 20.4407 21 19.8174Z" fill="white"/>
</svg>
