<svg width="33" height="20" viewBox="0 0 33 20" fill="none" xmlns="http://www.w3.org/2000/svg">
<path fill-rule="evenodd" clip-rule="evenodd" d="M10.3688 0.779785L0.310547 9.99988L10.3688 19.22H33V0.779785H10.3688Z" fill="#C4C4C4"/>
<path d="M24.2798 7.28079L21.8098 9.75076L24.2798 12.2207C24.5728 12.5137 24.5728 12.9888 24.2798 13.2818C24.1338 13.4278 23.9418 13.5017 23.7498 13.5017C23.5578 13.5017 23.3658 13.4288 23.2198 13.2818L20.7498 10.8117L18.2798 13.2818C18.1338 13.4278 17.9418 13.5017 17.7498 13.5017C17.5578 13.5017 17.3658 13.4288 17.2198 13.2818C16.9267 12.9888 16.9267 12.5137 17.2198 12.2207L19.6898 9.75076L17.2198 7.28079C16.9267 6.98779 16.9267 6.51275 17.2198 6.21975C17.5128 5.92675 17.9878 5.92675 18.2808 6.21975L20.7508 8.68978L23.2208 6.21975C23.5138 5.92675 23.9888 5.92675 24.2818 6.21975C24.5748 6.51275 24.5728 6.98779 24.2798 7.28079Z" fill="white"/>
</svg>
