<svg width="15" height="23" viewBox="0 0 15 23" fill="none" xmlns="http://www.w3.org/2000/svg">
<path d="M7.49998 18.478C6.49481 18.478 5.67239 19.3752 5.67239 20.4717C5.67239 21.5683 6.49481 22.4655 7.49998 22.4655C8.50515 22.4655 9.32757 21.5683 9.32757 20.4717C9.32757 19.3752 8.50515 18.478 7.49998 18.478ZM2.01722 0.534424C1.01205 0.534424 0.189636 1.4316 0.189636 2.52815C0.189636 3.62471 1.01205 4.52188 2.01722 4.52188C3.02239 4.52188 3.84481 3.62471 3.84481 2.52815C3.84481 1.4316 3.02239 0.534424 2.01722 0.534424ZM2.01722 6.51562C1.01205 6.51562 0.189636 7.41279 0.189636 8.50935C0.189636 9.6059 1.01205 10.5031 2.01722 10.5031C3.02239 10.5031 3.84481 9.6059 3.84481 8.50935C3.84481 7.41279 3.02239 6.51562 2.01722 6.51562ZM2.01722 12.4968C1.01205 12.4968 0.189636 13.394 0.189636 14.4905C0.189636 15.5871 1.01205 16.4843 2.01722 16.4843C3.02239 16.4843 3.84481 15.5871 3.84481 14.4905C3.84481 13.394 3.02239 12.4968 2.01722 12.4968ZM12.9827 4.52188C13.9879 4.52188 14.8103 3.62471 14.8103 2.52815C14.8103 1.4316 13.9879 0.534424 12.9827 0.534424C11.9776 0.534424 11.1552 1.4316 11.1552 2.52815C11.1552 3.62471 11.9776 4.52188 12.9827 4.52188ZM7.49998 12.4968C6.49481 12.4968 5.67239 13.394 5.67239 14.4905C5.67239 15.5871 6.49481 16.4843 7.49998 16.4843C8.50515 16.4843 9.32757 15.5871 9.32757 14.4905C9.32757 13.394 8.50515 12.4968 7.49998 12.4968ZM12.9827 12.4968C11.9776 12.4968 11.1552 13.394 11.1552 14.4905C11.1552 15.5871 11.9776 16.4843 12.9827 16.4843C13.9879 16.4843 14.8103 15.5871 14.8103 14.4905C14.8103 13.394 13.9879 12.4968 12.9827 12.4968ZM12.9827 6.51562C11.9776 6.51562 11.1552 7.41279 11.1552 8.50935C11.1552 9.6059 11.9776 10.5031 12.9827 10.5031C13.9879 10.5031 14.8103 9.6059 14.8103 8.50935C14.8103 7.41279 13.9879 6.51562 12.9827 6.51562ZM7.49998 6.51562C6.49481 6.51562 5.67239 7.41279 5.67239 8.50935C5.67239 9.6059 6.49481 10.5031 7.49998 10.5031C8.50515 10.5031 9.32757 9.6059 9.32757 8.50935C9.32757 7.41279 8.50515 6.51562 7.49998 6.51562ZM7.49998 0.534424C6.49481 0.534424 5.67239 1.4316 5.67239 2.52815C5.67239 3.62471 6.49481 4.52188 7.49998 4.52188C8.50515 4.52188 9.32757 3.62471 9.32757 2.52815C9.32757 1.4316 8.50515 0.534424 7.49998 0.534424Z" fill="white"/>
</svg>
