<svg width="29" height="29" viewBox="0 0 29 29" fill="none" xmlns="http://www.w3.org/2000/svg">
<circle cx="14.5" cy="14.5" r="14.5" fill="#8D9CD3"/>
<path d="M17.8333 10H11.1667C9.42067 10 8 11.3748 8 13.0645V16.9355C8 18.6252 9.42067 20 11.1667 20H17.8333C19.5793 20 21 18.6252 21 16.9355V13.0645C21 11.3748 19.5793 10 17.8333 10ZM11.1667 10.9677H17.8333C18.736 10.9677 19.51 11.5058 19.8353 12.2664L15.702 14.9335C14.972 15.4039 14.028 15.4039 13.2987 14.9335L9.16532 12.2664C9.48999 11.5051 10.264 10.9677 11.1667 10.9677ZM17.8333 19.0323H11.1667C9.972 19.0323 9 18.0916 9 16.9355V13.3232L12.7433 15.7387C13.2767 16.0826 13.888 16.2548 14.5 16.2548C15.1113 16.2548 15.7227 16.0826 16.2567 15.7387L20 13.3232V16.9355C20 18.0916 19.028 19.0323 17.8333 19.0323Z" fill="white"/>
</svg>
