<svg width="30" height="30" viewBox="0 0 30 30" fill="none" xmlns="http://www.w3.org/2000/svg">
<circle cx="15" cy="15" r="15" fill="#95DDD9"/>
<path d="M18.8333 10H12.1667C10.4207 10 9 11.3748 9 13.0645V16.9355C9 18.6252 10.4207 20 12.1667 20H18.8333C20.5793 20 22 18.6252 22 16.9355V13.0645C22 11.3748 20.5793 10 18.8333 10ZM12.1667 10.9677H18.8333C19.736 10.9677 20.51 11.5058 20.8353 12.2664L16.702 14.9335C15.972 15.4039 15.028 15.4039 14.2987 14.9335L10.1653 12.2664C10.49 11.5051 11.264 10.9677 12.1667 10.9677ZM18.8333 19.0323H12.1667C10.972 19.0323 10 18.0916 10 16.9355V13.3232L13.7433 15.7387C14.2767 16.0826 14.888 16.2548 15.5 16.2548C16.1113 16.2548 16.7227 16.0826 17.2567 15.7387L21 13.3232V16.9355C21 18.0916 20.028 19.0323 18.8333 19.0323Z" fill="white"/>
</svg>
