<svg width="40" height="40" viewBox="0 0 40 40" fill="none" xmlns="http://www.w3.org/2000/svg">
<g filter="url(#filter0_d_16_2532)">
<path d="M26.8153 7.19415C26.7252 7.1046 26.6114 7.0426 26.4872 7.01544C26.3631 6.98828 26.2337 6.99708 26.1144 7.04082L11.4307 12.3739C11.3041 12.4219 11.1951 12.5072 11.1181 12.6185C11.0412 12.7298 11 12.8619 11 12.9972C11 13.1325 11.0412 13.2645 11.1181 13.3759C11.1951 13.4872 11.3041 13.5725 11.4307 13.6205L14.9536 15.0255C16.2946 15.5603 17.8253 15.2445 18.8451 14.2227L20.926 12.1378C21.1854 11.8779 21.6062 11.8776 21.866 12.137C22.1259 12.3966 22.1259 12.8178 21.866 13.0774L19.7749 15.1659C18.7501 16.1895 18.4349 17.7259 18.9739 19.0704L20.3811 22.58C20.4306 22.7041 20.5162 22.8104 20.6269 22.8853C20.7375 22.9602 20.8682 23.0001 21.0018 23C21.1367 22.9972 21.2676 22.9537 21.3772 22.8752C21.4868 22.7966 21.57 22.6868 21.6159 22.56L26.9554 7.89411C27.0009 7.77617 27.0119 7.64774 26.987 7.52381C26.9622 7.39988 26.9026 7.28555 26.8153 7.19415Z" fill="url(#paint0_linear_16_2532)"/>
</g>
<defs>
<filter id="filter0_d_16_2532" x="0" y="0" width="40" height="40" filterUnits="userSpaceOnUse" color-interpolation-filters="sRGB">
<feFlood flood-opacity="0" result="BackgroundImageFix"/>
<feColorMatrix in="SourceAlpha" type="matrix" values="0 0 0 0 0 0 0 0 0 0 0 0 0 0 0 0 0 0 127 0" result="hardAlpha"/>
<feOffset dx="1" dy="5"/>
<feGaussianBlur stdDeviation="6"/>
<feComposite in2="hardAlpha" operator="out"/>
<feColorMatrix type="matrix" values="0 0 0 0 0 0 0 0 0 0 0 0 0 0 0 0 0 0 0.04 0"/>
<feBlend mode="normal" in2="BackgroundImageFix" result="effect1_dropShadow_16_2532"/>
<feBlend mode="normal" in="SourceGraphic" in2="effect1_dropShadow_16_2532" result="shape"/>
</filter>
<linearGradient id="paint0_linear_16_2532" x1="26.5" y1="23" x2="6.59442" y2="20.6526" gradientUnits="userSpaceOnUse">
<stop stop-color="white"/>
<stop offset="1" stop-color="white"/>
</linearGradient>
</defs>
</svg>
