<svg width="17" height="17" viewBox="0 0 17 17" fill="none" xmlns="http://www.w3.org/2000/svg">
<path d="M16.8037 0.20628C16.708 0.111137 16.5871 0.0452636 16.4552 0.0164048C16.3233 -0.0124539 16.1859 -0.00309816 16.0591 0.0433722L0.457656 5.70975C0.323106 5.76072 0.207267 5.85137 0.125523 5.96966C0.0437794 6.08795 0 6.22828 0 6.372C0 6.51573 0.0437794 6.65606 0.125523 6.77435C0.207267 6.89264 0.323106 6.98329 0.457656 7.03426L4.20075 8.52707C5.62553 9.0953 7.25186 8.7598 8.33546 7.67411L10.5464 5.45888C10.8219 5.18281 11.2691 5.18245 11.5451 5.45809C11.8212 5.73389 11.8212 6.18141 11.5451 6.45721L9.32336 8.67626C8.23443 9.76387 7.89955 11.3963 8.4723 12.8248L9.96744 16.5538C10.02 16.6856 10.111 16.7986 10.2285 16.8781C10.3461 16.9577 10.4849 17.0001 10.627 17C10.7703 16.9971 10.9093 16.9508 11.0258 16.8674C11.1423 16.7839 11.2307 16.6672 11.2794 16.5325L16.9526 0.949992C17.0009 0.824678 17.0126 0.688227 16.9862 0.55655C16.9599 0.424873 16.8966 0.303395 16.8037 0.20628Z" fill="url(#paint0_linear_16_2532)"/>
<defs>
<linearGradient id="paint0_linear_16_2532" x1="16.4687" y1="17" x2="-4.68093" y2="14.5059" gradientUnits="userSpaceOnUse">
<stop stop-color="white"/>
<stop offset="1" stop-color="white"/>
</linearGradient>
</defs>
</svg>
