<svg width="11" height="9" viewBox="0 0 11 9" fill="none" xmlns="http://www.w3.org/2000/svg">
<path d="M10.7038 6.11219C7.73422 3.52377 3.26344 3.52377 0.29855 6.11219C-0.0955172 6.45484 -0.0955173 7.06143 0.275093 7.42724L0.838046 7.98289C1.17113 8.31165 1.70124 8.33943 2.06716 8.05235L2.99134 7.32537C3.21183 7.15404 3.34319 6.8901 3.34319 6.60765V5.41762C4.74119 4.96847 6.25647 4.96384 7.65916 5.41762V6.61228C7.65916 6.8901 7.79052 7.15404 8.01101 7.33L8.93049 8.05235C9.3011 8.33943 9.82653 8.31165 10.1596 7.98289L10.7226 7.42724C11.0979 7.06143 11.0932 6.45484 10.7038 6.11219V6.11219ZM2.68641 2.77827C2.94443 2.77827 3.15554 2.5699 3.15554 2.31522V1.58824L5.14464 3.55155C5.3276 3.73214 5.62315 3.73214 5.80611 3.55155L8.46137 0.93072C8.5048 0.88785 8.53925 0.836957 8.56276 0.780945C8.58626 0.724933 8.59836 0.6649 8.59836 0.604273C8.59836 0.543646 8.58626 0.483613 8.56276 0.427602C8.53925 0.37159 8.5048 0.320696 8.46137 0.277827C8.41793 0.234957 8.36637 0.200951 8.30962 0.17775C8.25288 0.154549 8.19206 0.142608 8.13063 0.142608C8.06921 0.142608 8.00839 0.154549 7.95164 0.17775C7.89489 0.200951 7.84333 0.234957 7.7999 0.277827L5.47772 2.5699L3.81231 0.926089H4.56292C4.82094 0.926089 5.03205 0.717719 5.03205 0.463045C5.03205 0.20837 4.82094 0 4.56292 0H2.68641C2.42839 0 2.21728 0.20837 2.21728 0.463045V2.31522C2.21728 2.5699 2.42839 2.77827 2.68641 2.77827Z" fill="#CC0000"/>
</svg>
