<svg width="30" height="30" viewBox="0 0 30 30" fill="none" xmlns="http://www.w3.org/2000/svg">
<circle cx="15" cy="15" r="15" fill="#A7E2DF"/>
<path d="M22 13.8158V20.6579C22 20.7947 21.9179 20.9247 21.7879 20.9726C21.7468 20.9931 21.6989 21 21.6579 21C21.5689 21 21.48 20.9659 21.4116 20.8974L20.1731 19.6316H14.1316C12.8111 19.6316 11.7368 18.5574 11.7368 17.2368H16.8684C18.7568 17.2368 20.2895 15.7042 20.2895 13.8158V11.5236C21.2747 11.8178 22 12.7347 22 13.8158ZM19.2632 13.8158V10.3947C19.2632 9.07421 18.1889 8 16.8684 8H11.3947C10.0742 8 9 9.07421 9 10.3947V17.2368C9 17.3737 9.0821 17.5037 9.2121 17.5516C9.25316 17.5721 9.30105 17.5789 9.34211 17.5789C9.43105 17.5789 9.51999 17.5448 9.58841 17.4764L10.8269 16.2105H16.8684C18.1889 16.2105 19.2632 15.1363 19.2632 13.8158Z" fill="white"/>
</svg>
