<svg width="29" height="29" viewBox="0 0 29 29" fill="none" xmlns="http://www.w3.org/2000/svg">
<circle cx="14.5" cy="14.5" r="14.5" fill="#E4D8FF"/>
<path d="M21 13.8158V20.6579C21 20.7947 20.9179 20.9247 20.7879 20.9726C20.7468 20.9931 20.6989 21 20.6579 21C20.5689 21 20.48 20.9659 20.4116 20.8974L19.1731 19.6316H13.1316C11.8111 19.6316 10.7368 18.5574 10.7368 17.2368H15.8684C17.7568 17.2368 19.2895 15.7042 19.2895 13.8158V11.5236C20.2747 11.8178 21 12.7347 21 13.8158ZM18.2632 13.8158V10.3947C18.2632 9.07421 17.1889 8 15.8684 8H10.3947C9.07421 8 8 9.07421 8 10.3947V17.2368C8 17.3737 8.0821 17.5037 8.2121 17.5516C8.25316 17.5721 8.30105 17.5789 8.34211 17.5789C8.43105 17.5789 8.51999 17.5448 8.58841 17.4764L9.82685 16.2105H15.8684C17.1889 16.2105 18.2632 15.1363 18.2632 13.8158Z" fill="white"/>
</svg>
