<svg width="23" height="18" viewBox="0 0 23 18" fill="none" xmlns="http://www.w3.org/2000/svg">
<path d="M9.51472 8.65195L0.835266 2.54414C1.79158 1.02014 3.51053 0 5.44737 0H17.5526C19.4895 0 21.1963 1.00813 22.1647 2.53213L13.5094 8.62793C12.2868 9.43193 10.7131 9.43195 9.51472 8.65195ZM22.9758 4.92012L14.8895 10.6081C13.8484 11.2921 12.6621 11.6279 11.4879 11.6279C10.3258 11.6279 9.16366 11.2921 8.14682 10.6201L0.0242342 4.92012C0.0121289 5.07612 0 5.244 0 5.4V12.6C0 15.576 2.44526 18 5.44737 18H17.5526C20.5547 18 23 15.576 23 12.6V5.4C23 5.244 22.9879 5.07612 22.9758 4.92012Z" fill="white"/>
</svg>
