<svg width="22" height="17" viewBox="0 0 22 17" fill="none" xmlns="http://www.w3.org/2000/svg">
<path d="M16.641 0H5.35897C2.40421 0 0 2.33723 0 5.20968V11.7903C0 14.6628 2.40421 17 5.35897 17H16.641C19.5958 17 22 14.6628 22 11.7903V5.20968C22 2.33723 19.5958 0 16.641 0ZM5.35897 1.64516H16.641C18.1686 1.64516 19.4785 2.5598 20.029 3.8529L13.0341 8.387C11.7987 9.18655 10.2012 9.18655 8.96697 8.387L1.97209 3.8529C2.52152 2.55871 3.83138 1.64516 5.35897 1.64516ZM16.641 15.3548H5.35897C3.33723 15.3548 1.69231 13.7557 1.69231 11.7903V5.64949L8.02717 9.75583C8.92973 10.3404 9.96431 10.6332 11 10.6332C12.0346 10.6332 13.0691 10.3404 13.9728 9.75583L20.3077 5.64949V11.7903C20.3077 13.7557 18.6628 15.3548 16.641 15.3548Z" fill="white"/>
</svg>
