<svg width="20" height="19" viewBox="0 0 20 19" fill="none" xmlns="http://www.w3.org/2000/svg">
<path d="M14.75 0H4.75C2.131 0 0 2.131 0 4.75V17.75C0 18.053 0.183013 18.327 0.463013 18.443C0.556013 18.482 0.653 18.5 0.75 18.5C0.945 18.5 1.137 18.424 1.28 18.28L3.694 15.866C3.93 15.63 4.244 15.5 4.578 15.5H14.75C17.369 15.5 19.5 13.369 19.5 10.75V4.75C19.5 2.131 17.369 0 14.75 0ZM18 10.75C18 12.542 16.542 14 14.75 14H4.57901C3.84401 14 3.154 14.286 2.634 14.806L1.5 15.9399V4.75C1.5 2.958 2.958 1.5 4.75 1.5H14.75C16.542 1.5 18 2.958 18 4.75V10.75ZM6.75 7.75C6.75 8.302 6.302 8.75 5.75 8.75C5.198 8.75 4.75 8.302 4.75 7.75C4.75 7.198 5.198 6.75 5.75 6.75C6.302 6.75 6.75 7.198 6.75 7.75ZM10.75 7.75C10.75 8.302 10.302 8.75 9.75 8.75C9.198 8.75 8.75 8.302 8.75 7.75C8.75 7.198 9.198 6.75 9.75 6.75C10.302 6.75 10.75 7.198 10.75 7.75ZM14.75 7.75C14.75 8.302 14.302 8.75 13.75 8.75C13.198 8.75 12.75 8.302 12.75 7.75C12.75 7.198 13.198 6.75 13.75 6.75C14.302 6.75 14.75 7.198 14.75 7.75Z" fill="white"/>
</svg>
