<svg width="20" height="19" viewBox="0 0 20 19" fill="none" xmlns="http://www.w3.org/2000/svg">
<path d="M15.2632 0H4.73684C2.12632 0 0 2.13222 0 4.75V18.4722C0 18.6833 0.126313 18.8733 0.326313 18.9577C0.389471 18.9894 0.463158 19 0.526316 19C0.663158 19 0.800006 18.9473 0.894743 18.8418L3.44209 16.2977C3.73683 16.0022 4.13683 15.8333 4.55788 15.8333H15.2632C17.8737 15.8333 20 13.7011 20 11.0833V4.75C20 2.13222 17.8737 0 15.2632 0ZM5.78947 9.23611C5.06316 9.23611 4.47368 8.645 4.47368 7.91667C4.47368 7.18833 5.06316 6.59722 5.78947 6.59722C6.51579 6.59722 7.10526 7.18833 7.10526 7.91667C7.10526 8.645 6.51579 9.23611 5.78947 9.23611ZM10 9.23611C9.27369 9.23611 8.68421 8.645 8.68421 7.91667C8.68421 7.18833 9.27369 6.59722 10 6.59722C10.7263 6.59722 11.3158 7.18833 11.3158 7.91667C11.3158 8.645 10.7263 9.23611 10 9.23611ZM14.2105 9.23611C13.4842 9.23611 12.8947 8.645 12.8947 7.91667C12.8947 7.18833 13.4842 6.59722 14.2105 6.59722C14.9368 6.59722 15.5263 7.18833 15.5263 7.91667C15.5263 8.645 14.9368 9.23611 14.2105 9.23611Z" fill="white"/>
</svg>
