<svg width="29" height="29" viewBox="0 0 29 29" fill="none" xmlns="http://www.w3.org/2000/svg">
<circle cx="14.5" cy="14.5" r="14.5" fill="#D8E0FF"/>
<path d="M21 14.8158V21.6579C21 21.7947 20.9179 21.9247 20.7879 21.9726C20.7468 21.9931 20.6989 22 20.6579 22C20.5689 22 20.48 21.9659 20.4116 21.8974L19.1731 20.6316H13.1316C11.8111 20.6316 10.7368 19.5574 10.7368 18.2368H15.8684C17.7568 18.2368 19.2895 16.7042 19.2895 14.8158V12.5236C20.2747 12.8178 21 13.7347 21 14.8158ZM18.2632 14.8158V11.3947C18.2632 10.0742 17.1889 9 15.8684 9H10.3947C9.07421 9 8 10.0742 8 11.3947V18.2368C8 18.3737 8.0821 18.5037 8.2121 18.5516C8.25316 18.5721 8.30105 18.5789 8.34211 18.5789C8.43105 18.5789 8.51999 18.5448 8.58841 18.4764L9.82685 17.2105H15.8684C17.1889 17.2105 18.2632 16.1363 18.2632 14.8158Z" fill="white"/>
</svg>
