<svg width="11" height="12" viewBox="0 0 11 12" fill="none" xmlns="http://www.w3.org/2000/svg">
<path d="M8.97073 9.6233C8.96012 9.56099 8.94721 9.50657 8.93383 9.4581C8.85305 9.16961 8.60193 8.94987 8.29405 8.8991L6.29449 8.56632C6 8.51694 5.70505 8.63093 5.52411 8.86264C5.49918 8.89449 5.47518 8.92679 5.45303 8.95956C5.42025 9.00756 5.35518 9.05235 5.28455 9.02142C4.24738 8.57046 3.42853 7.7516 2.97802 6.71443C2.94664 6.64288 2.99047 6.58011 3.03755 6.54827C3.0814 6.51872 3.12387 6.4869 3.16495 6.45366C3.38974 6.2718 3.50146 5.981 3.45623 5.69435L3.1465 3.73033C3.09895 3.42938 2.89264 3.18334 2.60738 3.08918C2.54045 3.06702 2.46291 3.04673 2.3729 3.03058C1.78854 2.92626 1.19078 3.09149 0.731502 3.48568C0.250072 3.89926 -0.0167266 4.50026 0.000813562 5.13355C0.1019 8.8825 3.11695 11.898 6.86592 11.9991C6.88484 11.9996 6.90379 12 6.92271 12C7.53062 12 8.10527 11.7369 8.50639 11.2725C8.90381 10.8123 9.0732 10.2109 8.97073 9.6233Z" fill="#CBCBCB"/>
<path d="M5.9016 2.46786L8.28037 2.01867C8.45461 1.98577 8.61761 2.10089 8.6453 2.27695L9.01744 4.66898C9.03136 4.75653 9.0083 4.84244 8.96014 4.91063C8.91198 4.97882 8.83838 5.02905 8.75156 5.04544C8.57731 5.07834 8.41397 4.96298 8.38671 4.78776L8.13367 3.16119L6.07963 6.06953C5.97578 6.21656 5.77597 6.25429 5.63361 6.15375C5.49125 6.05321 5.45999 5.85228 5.56383 5.70524L7.61787 2.7969L6.00032 3.10236C5.82607 3.13526 5.66273 3.01989 5.63547 2.84468C5.60821 2.66946 5.72735 2.50076 5.9016 2.46786Z" fill="#62D57B"/>
</svg>
