<svg width="14" height="16" viewBox="0 0 14 16" fill="none" xmlns="http://www.w3.org/2000/svg">
<path d="M13.7732 10.1889L9.86571 14.2225C8.7715 15.3521 7.24908 16 5.68859 16C4.15218 16 2.72147 15.3952 1.65912 14.2984C-0.581369 11.9848 -0.548704 8.18721 1.73298 5.83281L6.1844 1.2376C6.95766 0.439198 7.98506 0 9.07927 0C10.1735 0 11.2008 0.439198 11.9741 1.2376C13.5688 2.884 13.5688 5.56161 11.9741 7.20801L7.50166 11.8248C6.5823 12.7752 4.97597 12.7752 4.05661 11.8248C3.10851 10.8464 3.10851 9.25359 4.05661 8.2752L7.98505 4.22002C8.28735 3.90642 8.77928 3.90636 9.08392 4.21836C9.38778 4.53036 9.38857 5.03681 9.08549 5.34961L5.15701 9.40479C4.81274 9.75998 4.81274 10.3391 5.15701 10.6943C5.4904 11.0383 6.06784 11.0383 6.40046 10.6943L10.8729 6.07764C11.8638 5.05444 11.8638 3.39041 10.8729 2.36641C9.91469 1.37761 8.24306 1.37761 7.28484 2.36641L2.83337 6.96162C1.1835 8.66402 1.15011 11.5064 2.75956 13.168C3.52816 13.9616 4.56873 14.3992 5.68859 14.3992C6.83875 14.3992 7.96015 13.9224 8.76527 13.092L12.6727 9.0584C12.9758 8.7448 13.467 8.74484 13.7716 9.05684C14.0755 9.36964 14.0763 9.87687 13.7732 10.1889Z" fill="white"/>
</svg>
