<svg width="18" height="18" viewBox="0 0 18 18" fill="none" xmlns="http://www.w3.org/2000/svg">
<path d="M16.8697 1.13217C16.1393 0.401712 15.1691 0 14.1364 0C13.1046 0 12.1335 0.401712 11.4031 1.13217L1.42385 11.1113C1.07236 11.4628 0.843045 11.9071 0.761566 12.397L0.0131202 16.8858C-0.0380408 17.19 0.0623697 17.5017 0.280278 17.7196C0.460289 17.9005 0.705662 18 0.95673 18C1.00884 18 1.06096 17.9962 1.11402 17.9867L5.60389 17.2383C6.09371 17.1568 6.53712 16.9285 6.88861 16.577L16.8678 6.59781C17.5983 5.86735 18 4.89722 18 3.86453C18 2.83184 17.5992 1.86168 16.8697 1.13217ZM6.21974 15.9081C6.00846 16.1194 5.74219 16.2558 5.44943 16.3051L0.949155 17.0422L1.69766 12.5533C1.74693 12.2586 1.88336 11.9924 2.09464 11.7821L9.92033 3.95642L14.0464 8.08339L6.21974 15.9081ZM16.1999 5.92894L14.7153 7.41356L10.5893 3.28659L12.0738 1.802C12.6252 1.2506 13.3576 0.947419 14.1374 0.947419C14.9171 0.947419 15.6504 1.2506 16.2008 1.802C16.7523 2.3534 17.0554 3.08573 17.0554 3.86546C17.0554 4.64518 16.7513 5.37754 16.1999 5.92894Z" fill="white"/>
</svg>
