<svg width="66" height="66" viewBox="0 0 66 66" fill="none" xmlns="http://www.w3.org/2000/svg">
<circle cx="33" cy="33" r="33" fill="url(#paint0_linear_15_1960)"/>
<path d="M26.0278 31.8194C28.0278 35.75 31.25 38.9583 35.1806 40.9722L38.2361 37.9167C38.6111 37.5417 39.1667 37.4167 39.6528 37.5833C41.2083 38.0972 42.8889 38.375 44.6111 38.375C45.375 38.375 46 39 46 39.7639V44.6111C46 45.375 45.375 46 44.6111 46C31.5694 46 21 35.4306 21 22.3889C21 21.625 21.625 21 22.3889 21H27.25C28.0139 21 28.6389 21.625 28.6389 22.3889C28.6389 24.125 28.9167 25.7917 29.4306 27.3472C29.5833 27.8333 29.4722 28.375 29.0833 28.7639L26.0278 31.8194Z" fill="white"/>
<defs>
<linearGradient id="paint0_linear_15_1960" x1="12.9836" y1="11.3607" x2="42.7377" y2="66" gradientUnits="userSpaceOnUse">
<stop stop-color="#85FB99"/>
<stop offset="0.544508" stop-color="#27BD40"/>
<stop offset="1" stop-color="#086B19"/>
</linearGradient>
</defs>
</svg>
