<svg width="19" height="19" viewBox="0 0 19 19" fill="none" xmlns="http://www.w3.org/2000/svg">
<path d="M18.9382 13.9825C18.9158 13.851 18.8886 13.7361 18.8603 13.6338C18.6898 13.0247 18.1596 12.5608 17.5097 12.4537L13.2884 11.7511C12.6667 11.6469 12.044 11.8875 11.662 12.3767C11.6094 12.4439 11.5587 12.5121 11.5119 12.5813C11.4428 12.6826 11.3054 12.7772 11.1563 12.7119C8.96669 11.7599 7.238 10.0311 6.28694 7.84157C6.22068 7.69053 6.31322 7.55802 6.41261 7.49078C6.50518 7.42842 6.59484 7.36122 6.68156 7.29106C7.15612 6.90713 7.39198 6.29321 7.29648 5.68808L6.6426 1.54181C6.54224 0.90647 6.10669 0.387053 5.50448 0.188266C5.36318 0.141493 5.19948 0.0986625 5.00946 0.0645569C3.7758 -0.155668 2.51386 0.193147 1.54428 1.02532C0.527929 1.89843 -0.0353116 3.16722 0.00171752 4.50416C0.215122 12.4186 6.58022 18.7847 14.4947 18.9981C14.5347 18.9991 14.5747 19 14.6146 19C15.898 19 17.1111 18.4445 17.9579 17.4642C18.7969 16.4927 19.1545 15.223 18.9382 13.9825ZM16.85 16.5093C16.2644 17.1865 15.4127 17.5481 14.5327 17.5383C7.39584 17.3454 1.65437 11.603 1.46143 4.46515C1.43804 3.56963 1.81419 2.71995 2.49631 2.1343C3.0118 1.6919 3.62667 1.45997 4.26786 1.45997C4.42767 1.45997 4.58946 1.47453 4.75122 1.50279C4.86425 1.52326 4.96069 1.54769 5.04449 1.57595C5.12537 1.60226 5.18481 1.67727 5.19943 1.76984L5.8533 5.91611C5.86792 6.00673 5.83286 6.09835 5.76367 6.15389C5.70715 6.19969 5.64962 6.24253 5.59018 6.28248C4.87493 6.76873 4.60993 7.64962 4.94612 8.42431C6.0453 10.954 8.04388 12.9526 10.5726 14.0518C11.3444 14.387 12.2272 14.123 12.7193 13.4048C12.7485 13.3629 12.7787 13.321 12.8118 13.2781C12.8645 13.2109 12.9561 13.1787 13.0487 13.1923L17.27 13.8949C17.3596 13.9105 17.4346 13.965 17.4532 14.0283C17.4707 14.0887 17.4853 14.1561 17.499 14.233C17.6393 15.0399 17.4025 15.8691 16.85 16.5093Z" fill="white"/>
</svg>
