<?xml version="1.0" encoding="UTF-8"?>
<!DOCTYPE svg PUBLIC "-//W3C//DTD SVG 1.1//EN" "http://www.w3.org/Graphics/SVG/1.1/DTD/svg11.dtd">
<!-- Creator: CorelDRAW 2021 (64-Bit) -->
<svg xmlns="http://www.w3.org/2000/svg" xml:space="preserve" width="4in" height="4in" version="1.1" style="shape-rendering:geometricPrecision; text-rendering:geometricPrecision; image-rendering:optimizeQuality; fill-rule:evenodd; clip-rule:evenodd"
viewBox="0 0 4000 4000"
 xmlns:xlink="http://www.w3.org/1999/xlink"
 xmlns:xodm="http://www.corel.com/coreldraw/odm/2003">
 <defs>
  <style type="text/css">
   <![CDATA[
    .fil1 {fill:#FEFEFE;fill-rule:nonzero}
    .fil0 {fill:#BAC4E1;fill-rule:nonzero}
   ]]>
  </style>
 </defs>
 <g id="Layer_x0020_1">
  <metadata id="CorelCorpID_0Corel-Layer"/>
  <path class="fil0" d="M2912.31 1627.18c0,496.76 -402.71,899.48 -899.48,899.48 -496.78,0 -899.49,-402.72 -899.49,-899.48 0,-496.78 402.71,-899.49 899.49,-899.49 496.78,0 899.48,402.71 899.48,899.49z"/>
  <path class="fil1" d="M2362.72 1512.15c0,267.67 -156.65,484.64 -349.9,484.64 -193.25,0 -349.92,-216.97 -349.92,-484.64 0,-267.65 156.67,-484.64 349.92,-484.64 193.25,0 349.9,216.99 349.9,484.64z"/>
  <path class="fil1" d="M2007.3 1965.78c-292.89,0 -554.72,70.2 -728.86,180.46 162.92,230.08 431.02,380.43 734.39,380.43 301.24,0 567.68,-148.24 730.93,-375.57 -174.08,-113.06 -439.28,-185.32 -736.46,-185.32z"/>
  <path class="fil1" d="M2066.1 2198.4l-106.56 0c-73.53,0 -133.68,-60.15 -133.68,-133.68l0 -303.86c0,-73.53 60.15,-133.68 133.68,-133.68l106.56 0c73.53,0 133.68,60.15 133.68,133.68l0 303.86c0,73.53 -60.15,133.68 -133.68,133.68z"/>
  <path class="fil1" d="M1718.17 1539.68c10.47,77.71 -6.78,145.07 -38.54,150.47 -31.75,5.4 -65.99,-53.21 -76.46,-130.91 -10.48,-77.69 6.76,-145.07 38.53,-150.47 31.75,-5.4 66,53.21 76.47,130.91z"/>
  <path class="fil1" d="M2307.48 1539.68c-10.47,77.71 6.78,145.07 38.53,150.47 31.76,5.4 66,-53.21 76.47,-130.91 10.47,-77.69 -6.78,-145.07 -38.53,-150.47 -31.76,-5.4 -66,53.21 -76.47,130.91z"/>
  <path class="fil1" d="M1675.14 1493.08c-11.76,-77.58 -23.53,-155.17 -35.31,-232.75 -4.26,-28.15 -8.39,-57.85 1.89,-84.42 10.28,-26.57 40.44,-47.72 67.13,-37.74 -10.68,-53.97 49.03,-93.83 101.06,-111.75 87.17,-30.01 180.65,-45.29 272.1,-33.47 91.44,11.82 180.72,52.26 242.36,120.82 19.52,21.71 36.32,46.36 45.63,74.03 17.87,53.24 6.5,111.32 -5.04,166.28 -9.15,43.67 -18.32,87.33 -27.49,131 -2.08,9.97 -4.42,20.44 -11.22,28.03 -10.86,12.07 -29.15,12.97 -45.39,13.02 -173.5,0.37 -347,0.75 -520.52,1.12 -32.62,0.07 -75.2,-7.97 -79.51,-40.32l-5.68 6.15z"/>
 </g>
</svg>
