<svg width="10" height="11" viewBox="0 0 10 11" fill="none" xmlns="http://www.w3.org/2000/svg">
<path d="M9.0554 10.0554C8.8304 10.2804 8.5252 10.4069 8.2069 10.4069C7.8887 10.4069 7.5835 10.2804 7.3584 10.0554L4.7074 7.0254L2.0564 10.0544C1.94531 10.1673 1.81296 10.2571 1.66698 10.3187C1.52101 10.3802 1.36429 10.4122 1.20589 10.4128C1.04748 10.4135 0.89051 10.3827 0.74404 10.3224C0.59756 10.2621 0.464481 10.1734 0.352471 10.0613C0.240461 9.9493 0.15173 9.8163 0.0914102 9.6698C0.0310902 9.5233 0.000360504 9.3663 0.0010105 9.2079C0.0016505 9.0495 0.0336606 8.8928 0.0951706 8.7468C0.156681 8.6009 0.246491 8.4685 0.359411 8.3574L3.1174 5.2074L0.35841 2.0554C0.24549 1.94431 0.15568 1.81196 0.0941702 1.66598C0.0326602 1.52001 0.0006501 1.36329 1.00998e-05 1.20489C-0.0006399 1.04648 0.0300908 0.889511 0.0904108 0.743041C0.150731 0.596561 0.239461 0.463481 0.351471 0.351471C0.463481 0.239461 0.596561 0.150731 0.743041 0.0904108C0.889511 0.0300908 1.04648 -0.0006399 1.20489 1.00998e-05C1.36329 0.0006501 1.52001 0.0326602 1.66598 0.0941702C1.81196 0.15568 1.94431 0.24549 2.0554 0.35841L4.7074 3.3894L7.3584 0.35841C7.4695 0.24549 7.6019 0.15568 7.7478 0.0941702C7.8938 0.0326602 8.0505 0.0006501 8.2089 1.00998e-05C8.3673 -0.0006399 8.5243 0.0300908 8.6708 0.0904108C8.8173 0.150731 8.9503 0.239461 9.0623 0.351471C9.1744 0.463481 9.2631 0.596561 9.3234 0.743041C9.3837 0.889511 9.4145 1.04648 9.4138 1.20489C9.4132 1.36329 9.3812 1.52001 9.3196 1.66598C9.2581 1.81196 9.1683 1.94431 9.0554 2.0554L6.2974 5.2074L9.0554 8.3574C9.167 8.4689 9.2555 8.6012 9.3159 8.7469C9.3763 8.8926 9.4074 9.0487 9.4074 9.2064C9.4074 9.3641 9.3763 9.5203 9.3159 9.6659C9.2555 9.8116 9.167 9.944 9.0554 10.0554Z" fill="#DD1717"/>
</svg>
